<svg width="248" height="46" viewBox="0 0 248 46" fill="none" xmlns="http://www.w3.org/2000/svg">
<circle cx="23" cy="23" r="23" fill="white" fill-opacity="0.21"/>
<path d="M33.3162 21.5706C34.6495 22.3404 34.6495 24.2649 33.3162 25.0347L19.7964 32.8404C18.4631 33.6102 16.7964 32.6479 16.7964 31.1083L16.7964 15.4971C16.7964 13.9575 18.4631 12.9952 19.7964 13.765L33.3162 21.5706Z" fill="white"/>
<path d="M83.12 15.128C83.392 15.128 83.664 15.24 83.936 15.464C84.208 15.672 84.344 15.968 84.344 16.352C84.344 16.48 84.32 16.616 84.272 16.76L79.304 31.28C79.224 31.504 79.088 31.68 78.896 31.808C78.704 31.92 78.496 31.984 78.272 32C78.048 32 77.832 31.944 77.624 31.832C77.416 31.704 77.264 31.512 77.168 31.256L73.304 22.184L73.52 22.28L69.704 31.256C69.592 31.512 69.432 31.704 69.224 31.832C69.016 31.944 68.8 32 68.576 32C68.384 31.984 68.184 31.92 67.976 31.808C67.768 31.68 67.632 31.504 67.568 31.28L62.6 16.76C62.552 16.616 62.528 16.48 62.528 16.352C62.528 15.968 62.664 15.672 62.936 15.464C63.208 15.24 63.488 15.128 63.776 15.128C64.016 15.128 64.24 15.192 64.448 15.32C64.656 15.448 64.8 15.632 64.88 15.872L69.128 28.496L68.696 28.472L72.416 19.352C72.512 19.128 72.656 18.952 72.848 18.824C73.04 18.696 73.256 18.632 73.496 18.632C73.736 18.632 73.952 18.696 74.144 18.824C74.336 18.952 74.48 19.128 74.576 19.352L78.104 28.256L77.792 28.424L81.992 15.872C82.056 15.632 82.192 15.448 82.4 15.32C82.608 15.192 82.848 15.128 83.12 15.128ZM96.5681 19.256C96.9041 19.256 97.1761 19.368 97.3841 19.592C97.6081 19.8 97.7201 20.08 97.7201 20.432V30.848C97.7201 31.168 97.6081 31.44 97.3841 31.664C97.1761 31.888 96.9041 32 96.5681 32C96.2321 32 95.9601 31.888 95.7521 31.664C95.5441 31.44 95.4401 31.168 95.4401 30.848V28.976L95.9201 29.024C95.9201 29.328 95.8001 29.664 95.5601 30.032C95.3361 30.4 95.0161 30.752 94.6001 31.088C94.2001 31.424 93.7201 31.704 93.1601 31.928C92.6161 32.136 92.0321 32.24 91.4081 32.24C90.3041 32.24 89.3121 31.96 88.4321 31.4C87.5681 30.824 86.8801 30.048 86.3681 29.072C85.8561 28.08 85.6001 26.952 85.6001 25.688C85.6001 24.408 85.8561 23.28 86.3681 22.304C86.8801 21.312 87.5681 20.536 88.4321 19.976C89.2961 19.416 90.2641 19.136 91.3361 19.136C92.0241 19.136 92.6561 19.248 93.2321 19.472C93.8241 19.696 94.3361 19.992 94.7681 20.36C95.2001 20.712 95.5361 21.096 95.7761 21.512C96.0161 21.928 96.1361 22.32 96.1361 22.688L95.4401 22.712V20.432C95.4401 20.096 95.5441 19.816 95.7521 19.592C95.9601 19.368 96.2321 19.256 96.5681 19.256ZM91.6721 30.128C92.4241 30.128 93.0881 29.936 93.6641 29.552C94.2561 29.168 94.7121 28.64 95.0321 27.968C95.3681 27.28 95.5361 26.52 95.5361 25.688C95.5361 24.856 95.3681 24.104 95.0321 23.432C94.7121 22.76 94.2561 22.232 93.6641 21.848C93.0881 21.448 92.4241 21.248 91.6721 21.248C90.9041 21.248 90.2321 21.44 89.6561 21.824C89.0801 22.208 88.6241 22.736 88.2881 23.408C87.9681 24.08 87.8081 24.84 87.8081 25.688C87.8081 26.52 87.9681 27.28 88.2881 27.968C88.6241 28.64 89.0801 29.168 89.6561 29.552C90.2321 29.936 90.9041 30.128 91.6721 30.128ZM100.846 19.568H106.51C106.814 19.568 107.062 19.672 107.254 19.88C107.462 20.088 107.566 20.336 107.566 20.624C107.566 20.928 107.462 21.176 107.254 21.368C107.062 21.56 106.814 21.656 106.51 21.656H100.846C100.558 21.656 100.31 21.56 100.102 21.368C99.8943 21.16 99.7903 20.904 99.7903 20.6C99.7903 20.312 99.8943 20.072 100.102 19.88C100.31 19.672 100.558 19.568 100.846 19.568ZM103.39 16.4C103.726 16.4 103.998 16.512 104.206 16.736C104.414 16.96 104.518 17.232 104.518 17.552V28.808C104.518 29.128 104.566 29.376 104.662 29.552C104.774 29.728 104.91 29.848 105.07 29.912C105.23 29.976 105.406 30.008 105.598 30.008C105.758 30.008 105.902 29.984 106.03 29.936C106.174 29.872 106.334 29.84 106.51 29.84C106.702 29.84 106.87 29.928 107.014 30.104C107.174 30.264 107.254 30.488 107.254 30.776C107.254 31.128 107.054 31.424 106.654 31.664C106.27 31.888 105.846 32 105.382 32C105.11 32 104.798 31.984 104.446 31.952C104.094 31.904 103.75 31.784 103.414 31.592C103.078 31.4 102.798 31.096 102.574 30.68C102.35 30.248 102.238 29.656 102.238 28.904V17.552C102.238 17.232 102.342 16.96 102.55 16.736C102.774 16.512 103.054 16.4 103.39 16.4ZM115.582 19.136C116.414 19.136 117.166 19.232 117.838 19.424C118.51 19.6 119.038 19.848 119.422 20.168C119.806 20.488 119.998 20.856 119.998 21.272C119.998 21.528 119.91 21.768 119.734 21.992C119.574 22.216 119.35 22.328 119.062 22.328C118.838 22.328 118.646 22.288 118.486 22.208C118.342 22.128 118.206 22.032 118.078 21.92C117.966 21.808 117.814 21.696 117.622 21.584C117.446 21.488 117.174 21.408 116.806 21.344C116.454 21.28 116.134 21.248 115.846 21.248C114.998 21.248 114.254 21.448 113.614 21.848C112.974 22.232 112.478 22.76 112.126 23.432C111.79 24.088 111.622 24.84 111.622 25.688C111.622 26.552 111.79 27.32 112.126 27.992C112.478 28.648 112.966 29.168 113.59 29.552C114.214 29.936 114.926 30.128 115.726 30.128C116.222 30.128 116.63 30.096 116.95 30.032C117.27 29.952 117.534 29.856 117.742 29.744C118.014 29.6 118.222 29.448 118.366 29.288C118.526 29.128 118.758 29.048 119.062 29.048C119.398 29.048 119.654 29.152 119.83 29.36C120.006 29.568 120.094 29.824 120.094 30.128C120.094 30.464 119.886 30.792 119.47 31.112C119.054 31.432 118.494 31.704 117.79 31.928C117.086 32.136 116.31 32.24 115.462 32.24C114.23 32.24 113.15 31.952 112.222 31.376C111.31 30.8 110.598 30.024 110.086 29.048C109.59 28.056 109.342 26.936 109.342 25.688C109.342 24.44 109.606 23.328 110.134 22.352C110.662 21.36 111.39 20.576 112.318 20C113.262 19.424 114.35 19.136 115.582 19.136ZM128.726 19.208C129.814 19.208 130.662 19.448 131.27 19.928C131.878 20.392 132.31 21.024 132.566 21.824C132.822 22.608 132.95 23.48 132.95 24.44V30.848C132.95 31.168 132.838 31.44 132.614 31.664C132.406 31.888 132.134 32 131.798 32C131.478 32 131.206 31.888 130.982 31.664C130.774 31.44 130.67 31.168 130.67 30.848V24.44C130.67 23.864 130.59 23.344 130.43 22.88C130.27 22.4 129.998 22.024 129.614 21.752C129.23 21.464 128.702 21.32 128.03 21.32C127.406 21.32 126.838 21.464 126.326 21.752C125.83 22.024 125.438 22.4 125.15 22.88C124.878 23.344 124.742 23.864 124.742 24.44V30.848C124.742 31.168 124.63 31.44 124.406 31.664C124.198 31.888 123.926 32 123.59 32C123.254 32 122.982 31.888 122.774 31.664C122.566 31.44 122.462 31.168 122.462 30.848V15.392C122.462 15.072 122.566 14.8 122.774 14.576C122.998 14.352 123.27 14.24 123.59 14.24C123.926 14.24 124.198 14.352 124.406 14.576C124.63 14.8 124.742 15.072 124.742 15.392V22.112L124.31 22.424C124.406 22.056 124.582 21.68 124.838 21.296C125.11 20.912 125.446 20.568 125.846 20.264C126.246 19.944 126.686 19.688 127.166 19.496C127.662 19.304 128.182 19.208 128.726 19.208ZM154.897 25.712C154.897 26.976 154.617 28.104 154.057 29.096C153.497 30.072 152.737 30.84 151.777 31.4C150.817 31.96 149.745 32.24 148.561 32.24C147.377 32.24 146.305 31.96 145.345 31.4C144.401 30.84 143.641 30.072 143.065 29.096C142.505 28.104 142.225 26.976 142.225 25.712C142.225 24.432 142.505 23.304 143.065 22.328C143.641 21.336 144.401 20.56 145.345 20C146.305 19.424 147.377 19.136 148.561 19.136C149.745 19.136 150.817 19.424 151.777 20C152.737 20.56 153.497 21.336 154.057 22.328C154.617 23.304 154.897 24.432 154.897 25.712ZM152.617 25.712C152.617 24.832 152.433 24.056 152.065 23.384C151.713 22.712 151.233 22.192 150.625 21.824C150.017 21.44 149.329 21.248 148.561 21.248C147.809 21.248 147.121 21.44 146.497 21.824C145.889 22.192 145.401 22.712 145.033 23.384C144.681 24.056 144.505 24.832 144.505 25.712C144.505 26.576 144.681 27.344 145.033 28.016C145.401 28.672 145.889 29.192 146.497 29.576C147.121 29.944 147.809 30.128 148.561 30.128C149.329 30.128 150.017 29.944 150.625 29.576C151.233 29.192 151.713 28.672 152.065 28.016C152.433 27.344 152.617 26.576 152.617 25.712ZM166.908 19.424C167.244 19.424 167.516 19.536 167.724 19.76C167.948 19.984 168.06 20.256 168.06 20.576V26.96C168.06 28.608 167.596 29.896 166.668 30.824C165.756 31.752 164.46 32.216 162.78 32.216C161.116 32.216 159.828 31.752 158.916 30.824C158.004 29.896 157.548 28.608 157.548 26.96V20.576C157.548 20.256 157.652 19.984 157.86 19.76C158.084 19.536 158.356 19.424 158.676 19.424C159.012 19.424 159.284 19.536 159.492 19.76C159.716 19.984 159.828 20.256 159.828 20.576V26.96C159.828 28.016 160.076 28.808 160.572 29.336C161.084 29.848 161.82 30.104 162.78 30.104C163.756 30.104 164.5 29.848 165.012 29.336C165.524 28.808 165.78 28.016 165.78 26.96V20.576C165.78 20.256 165.884 19.984 166.092 19.76C166.316 19.536 166.588 19.424 166.908 19.424ZM172.574 32C172.238 32 171.966 31.888 171.758 31.664C171.55 31.44 171.446 31.168 171.446 30.848V20.576C171.446 20.256 171.55 19.984 171.758 19.76C171.982 19.536 172.254 19.424 172.574 19.424C172.91 19.424 173.182 19.536 173.39 19.76C173.614 19.984 173.726 20.256 173.726 20.576V23.408L173.486 22.496C173.598 22.032 173.782 21.6 174.038 21.2C174.31 20.8 174.63 20.448 174.998 20.144C175.366 19.824 175.782 19.576 176.246 19.4C176.71 19.224 177.198 19.136 177.71 19.136C178.11 19.136 178.462 19.24 178.766 19.448C179.086 19.656 179.246 19.928 179.246 20.264C179.246 20.664 179.134 20.96 178.91 21.152C178.702 21.344 178.47 21.44 178.214 21.44C177.974 21.44 177.742 21.392 177.518 21.296C177.31 21.184 177.062 21.128 176.774 21.128C176.406 21.128 176.038 21.224 175.67 21.416C175.318 21.608 174.99 21.88 174.686 22.232C174.398 22.584 174.166 23 173.99 23.48C173.814 23.96 173.726 24.488 173.726 25.064V30.848C173.726 31.168 173.614 31.44 173.39 31.664C173.182 31.888 172.91 32 172.574 32ZM188.233 19.304C188.457 19.304 188.673 19.368 188.881 19.496C189.089 19.608 189.241 19.784 189.337 20.024L193.153 28.88L192.697 29.096L196.585 20.024C196.809 19.528 197.153 19.288 197.617 19.304C197.921 19.304 198.177 19.408 198.385 19.616C198.593 19.808 198.697 20.04 198.697 20.312C198.697 20.424 198.681 20.536 198.648 20.648C198.617 20.744 198.577 20.832 198.529 20.912L193.969 31.28C193.761 31.744 193.433 31.984 192.985 32C192.729 32.032 192.489 31.984 192.265 31.856C192.057 31.728 191.897 31.536 191.785 31.28L187.225 20.912C187.193 20.848 187.161 20.768 187.129 20.672C187.113 20.56 187.104 20.44 187.104 20.312C187.104 20.088 187.201 19.864 187.393 19.64C187.601 19.416 187.881 19.304 188.233 19.304ZM203.325 30.848C203.325 31.168 203.213 31.44 202.989 31.664C202.781 31.888 202.509 32 202.173 32C201.853 32 201.581 31.888 201.357 31.664C201.149 31.44 201.045 31.168 201.045 30.848V20.456C201.045 20.136 201.149 19.864 201.357 19.64C201.581 19.416 201.853 19.304 202.173 19.304C202.509 19.304 202.781 19.416 202.989 19.64C203.213 19.864 203.325 20.136 203.325 20.456V30.848ZM202.173 17.72C201.709 17.72 201.373 17.64 201.165 17.48C200.973 17.304 200.877 17.032 200.877 16.664V16.28C200.877 15.896 200.989 15.624 201.213 15.464C201.437 15.304 201.765 15.224 202.197 15.224C202.645 15.224 202.965 15.304 203.157 15.464C203.365 15.624 203.469 15.896 203.469 16.28V16.664C203.469 17.048 203.365 17.32 203.157 17.48C202.949 17.64 202.621 17.72 202.173 17.72ZM216.802 14.24C217.138 14.24 217.41 14.352 217.618 14.576C217.842 14.784 217.954 15.056 217.954 15.392V30.848C217.954 31.168 217.842 31.44 217.618 31.664C217.41 31.888 217.138 32 216.802 32C216.466 32 216.194 31.888 215.986 31.664C215.778 31.44 215.674 31.168 215.674 30.848V28.976L216.154 28.952C216.154 29.272 216.034 29.624 215.794 30.008C215.57 30.376 215.25 30.736 214.834 31.088C214.434 31.424 213.954 31.704 213.394 31.928C212.85 32.136 212.266 32.24 211.642 32.24C210.554 32.24 209.57 31.96 208.69 31.4C207.81 30.84 207.114 30.064 206.602 29.072C206.09 28.08 205.834 26.952 205.834 25.688C205.834 24.424 206.09 23.304 206.602 22.328C207.114 21.336 207.802 20.56 208.666 20C209.53 19.424 210.498 19.136 211.57 19.136C212.242 19.136 212.866 19.248 213.442 19.472C214.034 19.696 214.546 19.992 214.978 20.36C215.426 20.712 215.77 21.096 216.01 21.512C216.25 21.928 216.37 22.32 216.37 22.688L215.674 22.712V15.392C215.674 15.072 215.778 14.8 215.986 14.576C216.194 14.352 216.466 14.24 216.802 14.24ZM211.906 30.128C212.658 30.128 213.322 29.936 213.898 29.552C214.49 29.168 214.946 28.64 215.266 27.968C215.602 27.296 215.77 26.536 215.77 25.688C215.77 24.856 215.602 24.104 215.266 23.432C214.946 22.744 214.49 22.208 213.898 21.824C213.322 21.44 212.658 21.248 211.906 21.248C211.138 21.248 210.466 21.44 209.89 21.824C209.314 22.208 208.858 22.744 208.522 23.432C208.202 24.104 208.042 24.856 208.042 25.688C208.042 26.536 208.202 27.296 208.522 27.968C208.858 28.64 209.314 29.168 209.89 29.552C210.466 29.936 211.138 30.128 211.906 30.128ZM227.081 32.24C225.753 32.24 224.601 31.968 223.625 31.424C222.665 30.864 221.913 30.104 221.369 29.144C220.841 28.184 220.577 27.08 220.577 25.832C220.577 24.424 220.857 23.224 221.417 22.232C221.993 21.24 222.729 20.48 223.625 19.952C224.537 19.408 225.497 19.136 226.505 19.136C227.289 19.136 228.025 19.288 228.713 19.592C229.417 19.896 230.041 20.32 230.585 20.864C231.129 21.408 231.561 22.048 231.881 22.784C232.201 23.52 232.369 24.336 232.385 25.232C232.369 25.536 232.249 25.784 232.025 25.976C231.801 26.168 231.537 26.264 231.233 26.264H221.873L221.321 24.344H230.393L229.961 24.728V24.152C229.913 23.576 229.713 23.072 229.361 22.64C229.025 22.208 228.601 21.872 228.089 21.632C227.593 21.376 227.065 21.248 226.505 21.248C226.025 21.248 225.561 21.328 225.113 21.488C224.665 21.648 224.265 21.904 223.913 22.256C223.561 22.592 223.281 23.04 223.073 23.6C222.865 24.16 222.761 24.856 222.761 25.688C222.761 26.584 222.945 27.368 223.313 28.04C223.697 28.696 224.201 29.208 224.825 29.576C225.465 29.944 226.177 30.128 226.961 30.128C227.537 30.128 228.017 30.072 228.401 29.96C228.801 29.832 229.137 29.68 229.409 29.504C229.681 29.312 229.913 29.12 230.105 28.928C230.345 28.784 230.577 28.712 230.801 28.712C231.073 28.712 231.297 28.816 231.473 29.024C231.665 29.216 231.761 29.432 231.761 29.672C231.761 30.008 231.601 30.312 231.281 30.584C230.833 31.032 230.225 31.424 229.457 31.76C228.705 32.08 227.913 32.24 227.081 32.24ZM246.936 25.712C246.936 26.976 246.656 28.104 246.096 29.096C245.536 30.072 244.776 30.84 243.816 31.4C242.856 31.96 241.784 32.24 240.6 32.24C239.416 32.24 238.344 31.96 237.384 31.4C236.44 30.84 235.68 30.072 235.104 29.096C234.544 28.104 234.264 26.976 234.264 25.712C234.264 24.432 234.544 23.304 235.104 22.328C235.68 21.336 236.44 20.56 237.384 20C238.344 19.424 239.416 19.136 240.6 19.136C241.784 19.136 242.856 19.424 243.816 20C244.776 20.56 245.536 21.336 246.096 22.328C246.656 23.304 246.936 24.432 246.936 25.712ZM244.656 25.712C244.656 24.832 244.472 24.056 244.104 23.384C243.752 22.712 243.272 22.192 242.664 21.824C242.056 21.44 241.368 21.248 240.6 21.248C239.848 21.248 239.16 21.44 238.536 21.824C237.928 22.192 237.44 22.712 237.072 23.384C236.72 24.056 236.544 24.832 236.544 25.712C236.544 26.576 236.72 27.344 237.072 28.016C237.44 28.672 237.928 29.192 238.536 29.576C239.16 29.944 239.848 30.128 240.6 30.128C241.368 30.128 242.056 29.944 242.664 29.576C243.272 29.192 243.752 28.672 244.104 28.016C244.472 27.344 244.656 26.576 244.656 25.712Z" fill="white"/>
</svg>
