<svg width="53" height="52" viewBox="0 0 53 52" fill="none" xmlns="http://www.w3.org/2000/svg">
<g clip-path="url(#clip0_203_184)">
<path d="M13.5 41.4375H26.5" stroke="#18302B" stroke-width="3" stroke-linecap="round" stroke-linejoin="round"/>
<path d="M20 41.0312V6.5L7 19.5H46" stroke="#18302B" stroke-width="3" stroke-linecap="round" stroke-linejoin="round"/>
<path d="M20 6.5L41.6667 19.5" stroke="#18302B" stroke-width="3" stroke-linecap="round" stroke-linejoin="round"/>
<path d="M37.3333 19.5V28.1667C38.1904 28.1667 39.0282 28.4208 39.7408 28.897C40.4534 29.3731 41.0088 30.0499 41.3368 30.8417C41.6648 31.6335 41.7506 32.5048 41.5834 33.3454C41.4162 34.186 41.0035 34.9581 40.3975 35.5641C39.7914 36.1702 39.0193 36.5829 38.1787 36.7501C37.3381 36.9173 36.4669 36.8315 35.675 36.5035C34.8832 36.1755 34.2065 35.6201 33.7303 34.9075C33.2541 34.1949 33 33.3571 33 32.5" stroke="#18302B" stroke-width="3" stroke-linecap="round" stroke-linejoin="round"/>
<g clip-path="url(#clip1_203_184)">
<path d="M9.979 46.9904C10.3174 47.4618 10.7655 47.8438 11.2845 48.1033C11.8036 48.3628 12.378 48.4921 12.9582 48.48C13.5384 48.4921 14.1128 48.3628 14.6318 48.1033C15.1509 47.8438 15.5989 47.4618 15.9373 46.9904C16.2757 46.5189 16.7238 46.1369 17.2428 45.8774C17.7619 45.6179 18.3363 45.4886 18.9165 45.5008C19.4967 45.4886 20.0711 45.6179 20.5902 45.8774C21.1092 46.1369 21.5573 46.5189 21.8957 46.9904C22.2341 47.4618 22.6821 47.8438 23.2012 48.1033C23.7202 48.3628 24.2947 48.4921 24.8748 48.48C25.455 48.4921 26.0294 48.3628 26.5485 48.1033C27.0675 47.8438 27.5156 47.4618 27.854 46.9904C28.1924 46.5189 28.6405 46.1369 29.1595 45.8774C29.6786 45.6179 30.253 45.4886 30.8332 45.5008C31.4134 45.4886 31.9878 45.6179 32.5068 45.8774C33.0259 46.1369 33.4739 46.5189 33.8123 46.9904C34.1507 47.4618 34.5988 47.8438 35.1178 48.1033C35.6369 48.3628 36.2113 48.4921 36.7915 48.48C37.3717 48.4921 37.9461 48.3628 38.4652 48.1033C38.9842 47.8438 39.4323 47.4618 39.7707 46.9904" stroke="#18302B" stroke-width="3" stroke-linecap="round" stroke-linejoin="round"/>
</g>
</g>
<defs>
<clipPath id="clip0_203_184">
<rect width="52" height="52" fill="white" transform="translate(0.5)"/>
</clipPath>
<clipPath id="clip1_203_184">
<rect width="35.75" height="35.75" fill="white" transform="translate(7 26)"/>
</clipPath>
</defs>
</svg>
